<?xml version="1.0" standalone="no"?>
<!DOCTYPE svg PUBLIC "-//W3C//DTD SVG 20010904//EN"
 "http://www.w3.org/TR/2001/REC-SVG-20010904/DTD/svg10.dtd">
<svg version="1.0" xmlns="http://www.w3.org/2000/svg"
 width="892.000000pt" height="1280.000000pt" viewBox="0 0 892.000000 1280.000000"
 preserveAspectRatio="xMidYMid meet">
<g transform="translate(0.000000,1280.000000) scale(0.100000,-0.100000)"
fill="#000000" stroke="none">
<path d="M8478 12785 c-16 -9 -122 -153 -268 -365 -134 -192 -248 -350 -255
-350 -8 0 -26 7 -42 17 -28 16 -33 15 -137 -23 l-108 -39 -92 -110 c-56 -66
-862 -1222 -2026 -2905 -1063 -1537 -1988 -2874 -2055 -2970 -67 -96 -659
-951 -1315 -1900 -656 -949 -1252 -1810 -1325 -1915 -163 -234 -254 -384 -355
-585 -211 -419 -325 -798 -370 -1229 -9 -85 -18 -117 -45 -170 -18 -37 -45
-95 -59 -130 -24 -60 -25 -64 -8 -87 9 -13 23 -24 30 -24 8 0 62 48 120 106
87 87 120 113 178 139 418 193 880 577 1233 1024 72 92 1672 2395 2991 4306
1008 1461 1387 2004 1397 2005 8 0 10 -26 6 -92 -5 -95 10 -177 34 -185 16 -6
403 528 1580 2181 991 1390 1053 1481 1053 1520 0 54 -27 98 -102 167 l-61 56
46 81 47 81 0 123 0 123 -66 44 c-35 25 -69 50 -75 57 -8 10 53 105 235 367
135 195 248 362 252 370 13 34 -27 75 -167 173 -165 114 -226 154 -236 154 -5
-1 -20 -7 -35 -15z m-29 -1662 c0 -5 -453 -678 -1008 -1498 -992 -1468 -1008
-1490 -1059 -1518 -29 -16 -57 -27 -63 -25 -13 4 -50 -50 1110 1626 696 1005
990 1422 1003 1422 10 0 18 -3 17 -7z"/>
</g>
</svg>
